# 3ds Max Wavefront OBJ Exporter v0.97b - (c)2007 guruware
# File Created: 27.12.2019 11:53:43

mtllib wall.mtl

#
# object Box002
#

v  0.5000 -0.4940 0.9940
v  -0.5000 -0.4940 0.9940
v  -0.5000 -0.4940 -0.0060
v  0.5000 -0.4940 -0.0060
v  0.4357 0.3007 0.9697
v  0.4757 0.3007 0.9297
v  0.4757 0.3007 0.0183
v  -0.4757 0.3007 0.0183
v  -0.4757 0.3007 0.9697
v  0.5790 0.4662 -0.0850
v  0.5790 0.4662 1.0730
v  -0.5790 0.4663 -0.0850
v  -0.5790 0.4663 1.0730
v  0.5441 0.4940 0.9828
v  0.5441 0.4940 0.0052
v  0.5139 0.4845 0.0354
v  0.5139 0.4845 0.9526
v  0.4888 0.4940 -0.0501
v  -0.4888 0.4940 -0.0501
v  -0.4586 0.4846 -0.0198
v  0.4586 0.4845 -0.0198
v  -0.5441 0.4940 0.0052
v  -0.5441 0.4940 0.9828
v  -0.5139 0.4846 0.9526
v  -0.5139 0.4846 0.0354
v  -0.4888 0.4940 1.0381
v  0.4888 0.4940 1.0381
v  0.4586 0.4845 1.0079
v  -0.4586 0.4846 1.0079
v  0.4757 0.4326 0.9297
v  0.4757 0.4326 0.0183
v  -0.4757 0.4326 0.0183
v  -0.4757 0.4326 0.9697
v  0.4357 0.4326 0.9697
# 34 vertices

vn 0.5547 -0.6202 0.5547
vn -0.5547 -0.6202 0.5547
vn -0.5547 -0.6202 -0.5547
vn 0.5547 -0.6202 -0.5547
vn -0.2971 0.6303 -0.7173
vn -0.7173 0.6303 -0.2971
vn -0.5773 0.5774 0.5774
vn 0.5774 0.5773 0.5774
vn 0.5774 0.5773 -0.5774
vn 0.6446 0.4110 -0.6446
vn 0.6446 0.4110 0.6446
vn -0.6446 0.4110 -0.6446
vn -0.6446 0.4110 0.6446
vn 0.2516 0.9678 0.0014
vn 0.2516 0.9678 -0.0014
vn -0.5081 0.8487 0.1468
vn -0.4414 0.8820 -0.1650
vn 0.0014 0.9678 -0.2516
vn -0.0014 0.9678 -0.2516
vn 0.1468 0.8487 0.5081
vn -0.1468 0.8487 0.5081
vn -0.2516 0.9678 -0.0014
vn -0.2516 0.9678 0.0014
vn 0.5082 0.8487 -0.1468
vn 0.5082 0.8487 0.1468
vn -0.0014 0.9678 0.2516
vn 0.0014 0.9678 0.2516
vn -0.1650 0.8820 -0.4414
vn 0.1468 0.8487 -0.5081
vn -0.8621 0.3735 -0.3426
vn -0.6597 0.3598 0.6597
vn 0.6598 0.3598 0.6597
vn 0.6598 0.3598 -0.6597
vn -0.3425 0.3735 -0.8621
# 34 vertex normals

vt 0.8469 0.2923 0.0000
vt 0.5746 0.2923 -0.0000
vt 0.5746 0.0200 -0.0000
vt 0.8469 0.0200 0.0000
vt 0.0309 0.9395 0.3902
vt 0.0200 0.9286 -0.3902
vt 0.0200 0.6805 0.3902
vt 0.2790 0.6805 -0.3902
vt 0.2790 0.9395 -0.3902
vt 0.0200 0.3138 -0.0000
vt 0.0200 0.0415 -0.0000
vt 0.2823 0.0200 -0.0000
vt 0.2823 0.3353 0.0000
vt 0.5596 0.0415 -0.0000
vt 0.5596 0.3138 -0.0000
vt 0.2973 0.3353 -0.0000
vt 0.2973 0.0200 0.0000
vt 0.2823 0.3717 -0.4851
vt 0.2823 0.6440 -0.4851
vt 0.0200 0.6655 0.4851
vt 0.0200 0.3502 0.4851
vt 0.2973 0.6440 -0.4851
vt 0.2973 0.3717 -0.4851
vt 0.5596 0.3502 0.4851
vt 0.5596 0.6655 0.4851
vt 0.6589 0.6706 0.4851
vt 0.6589 0.4044 0.4851
vt 0.6675 0.4126 -0.4851
vt 0.6675 0.6624 -0.4851
vt 0.5746 0.3072 0.4851
vt 0.8408 0.3072 0.4851
vt 0.8325 0.3158 -0.4851
vt 0.5828 0.3158 -0.4851
vt 0.4401 0.6805 0.4851
vt 0.4401 0.9466 0.4851
vt 0.4315 0.9384 -0.4851
vt 0.4315 0.6887 -0.4851
vt 0.9486 0.4130 0.4851
vt 0.6824 0.4130 0.4851
vt 0.6907 0.4044 -0.4851
vt 0.9404 0.4044 -0.4851
vt 0.8618 0.2682 0.0433
vt 0.8618 0.0200 0.0433
vt 0.8977 0.0200 -0.0433
vt 0.8977 0.2682 -0.0433
vt 0.6105 0.3502 0.0433
vt 0.6105 0.6093 0.0433
vt 0.5746 0.6093 -0.0433
vt 0.5746 0.3502 -0.0433
vt 0.3332 0.6805 0.4418
vt 0.3332 0.9395 0.4418
vt 0.2973 0.9395 -0.4418
vt 0.2973 0.6805 -0.4418
vt 0.3481 0.9286 0.4418
vt 0.3481 0.6805 0.4418
vt 0.3841 0.6805 -0.4418
vt 0.3841 0.9286 -0.4418
vt 0.0200 0.9800 0.4763
vt 0.0299 0.9545 0.5047
vt 0.0452 0.9692 -0.5047
vt 0.8618 0.2831 0.4763
vt 0.8870 0.2939 -0.5047
vt 0.8717 0.3086 0.5047
vt 0.3225 0.9800 0.4763
vt 0.2973 0.9692 -0.5047
vt 0.3126 0.9545 0.5047
vt 0.3733 0.9436 0.4763
vt 0.3635 0.9691 0.5047
vt 0.3481 0.9543 -0.5047
vt 0.6824 0.4419 -0.5728
vt 0.6948 0.4280 0.5120
vt 0.7078 0.4363 -0.5728
vt 0.7004 0.4534 0.5728
vt 0.9398 0.2940 0.0713
vt 0.9545 0.3046 -0.0713
vt 0.9398 0.3153 0.0058
vt 0.5893 0.9149 0.0713
vt 0.5746 0.9043 -0.0713
vt 0.5893 0.8936 0.0058
vt 0.4137 0.9757 0.5819
vt 0.3990 0.9651 -0.6474
vt 0.4137 0.9545 0.6474
vt 0.6376 0.9104 -0.4714
vt 0.6254 0.9349 0.4714
vt 0.6254 0.6196 0.4714
vt 0.6376 0.6442 -0.4714
vt 0.6834 0.3895 -0.4714
vt 0.6589 0.3773 0.4714
vt 0.9741 0.3773 0.4714
vt 0.9496 0.3895 -0.4714
vt 0.9127 0.0446 -0.4714
vt 0.9248 0.0200 0.4714
vt 0.9248 0.3353 0.4714
vt 0.9127 0.3107 -0.4714
vt 0.9496 0.3502 -0.4714
vt 0.9741 0.3624 0.4714
vt 0.6589 0.3624 0.4714
vt 0.6834 0.3502 -0.4714
vt 0.6439 0.5984 -0.0433
vt 0.6264 0.6047 0.0113
vt 0.6254 0.3550 -0.0433
vt 0.6430 0.3502 0.0433
vt 0.3990 0.6805 0.0433
vt 0.4166 0.6851 -0.0433
vt 0.4166 0.9348 -0.0433
vt 0.3990 0.9395 0.0433
vt 0.9398 0.0200 0.4418
vt 0.9573 0.0247 -0.4418
vt 0.9573 0.2744 -0.4418
vt 0.9398 0.2790 0.4418
vt 0.5921 0.8787 0.4259
vt 0.5746 0.8739 -0.4579
vt 0.5755 0.6242 0.4579
vt 0.5931 0.6305 -0.4579
vt 0.0753 0.9779 0.4878
vt 0.0601 0.9630 -0.4878
vt 0.0685 0.9545 0.4784
vt 0.0837 0.9694 -0.4878
vt 0.7227 0.4429 -0.4878
vt 0.7379 0.4280 0.4878
vt 0.7463 0.4365 -0.4878
vt 0.7311 0.4514 0.4784
vt 0.4634 0.7108 0.4878
vt 0.4786 0.7257 -0.4878
vt 0.4703 0.7342 0.4784
vt 0.4551 0.7193 -0.4878
vt 0.7060 0.4768 -0.4878
vt 0.6908 0.4917 0.4878
vt 0.6824 0.4832 -0.4878
vt 0.6976 0.4683 0.4784
vt 0.4551 0.6959 -0.3627
vt 0.4551 0.6805 0.3627
vt 0.4910 0.6805 0.3627
vt 0.4910 0.6959 -0.3627
# 134 texture coords

o Box002
g Box002
usemtl Standardmaterial
s 1
f 1/1/1 2/2/2 3/3/3 4/4/4 
f 5/5/5 6/6/6 7/7/7 8/8/8 9/9/9 
s 2
f 1/10/1 4/11/4 10/12/10 11/13/11 
s 4
f 4/14/4 3/15/3 12/16/12 10/17/10 
s 2
f 3/18/3 2/19/2 13/20/13 12/21/12 
s 4
f 2/22/2 1/23/1 11/24/11 13/25/13 
s 1
f 14/26/14 15/27/15 16/28/16 17/29/17 
f 18/30/18 19/31/19 20/32/20 21/33/21 
f 22/34/22 23/35/23 24/36/24 25/37/25 
f 26/38/26 27/39/27 28/40/28 29/41/29 
s 2
f 30/42/30 31/43/31 7/44/7 6/45/6 
s 4
f 31/46/31 32/47/32 8/48/8 7/49/7 
s 2
f 32/50/32 33/51/33 9/52/9 8/53/8 
s 4
f 33/54/33 34/55/34 5/56/5 9/57/9 
s 1
f 11/58/11 14/59/14 27/60/27 
f 10/61/10 18/62/18 15/63/15 
f 13/64/13 26/65/26 23/66/23 
f 12/67/12 22/68/22 19/69/19 
s 8
f 17/70/17 30/71/30 34/72/34 28/73/28 
f 21/74/21 31/75/31 16/76/16 
f 25/77/25 32/78/32 20/79/20 
f 29/80/29 33/81/33 24/82/24 
s 1
f 14/83/14 11/84/11 10/85/10 15/86/15 
f 18/87/18 10/88/10 12/89/12 19/90/19 
f 22/91/22 12/92/12 13/93/13 23/94/23 
f 26/95/26 13/96/13 11/97/11 27/98/27 
s 16
f 30/99/30 17/100/17 16/101/16 31/102/31 
s 32
f 31/103/31 21/104/21 20/105/20 32/106/32 
s 16
f 32/107/32 25/108/25 24/109/24 33/110/33 
s 32
f 33/111/33 29/112/29 28/113/28 34/114/34 
s 1
f 27/115/27 14/116/14 17/117/17 28/118/28 
f 15/119/15 18/120/18 21/121/21 16/122/16 
f 19/123/19 22/124/22 25/125/25 20/126/20 
f 23/127/23 26/128/26 29/129/29 24/130/24 
s 64
f 34/131/34 30/132/30 6/133/6 5/134/5 
# 28 polygons - 7 triangles

